<?xml version="1.0" encoding="utf-8"?><svg version="1.1" id="Layer_1" xmlns="http://www.w3.org/2000/svg" xmlns:xlink="http://www.w3.org/1999/xlink" x="0px" y="0px" viewBox="0 0 113.55 122.88" style="enable-background:new 0 0 113.55 122.88" xml:space="preserve"><style type="text/css"><![CDATA[
	.st0{fill-rule:evenodd;clip-rule:evenodd;}
]]></style><g><path class="st0" d="M72.15,71.35c-1.6-1.62-2.78-3.35-3.96-5.08c-0.19-0.28-0.39-0.57-0.59-0.85c-2.85,2.26-6.3,3.7-10.81,3.69 c-4.86-0.01-8.51-1.87-11.51-4.61c-0.18-0.16-0.36-0.33-0.53-0.5c-0.43,1.19-0.98,2.62-1.56,3.95c-0.56,1.27-1.15,2.46-1.73,3.33 c1.62,3.29,4.07,5.75,6.91,7.37c-1.94,1-3.65,2.52-4.89,4.5c-0.17,0.23-0.32,0.47-0.43,0.73l-11.09,19.29H6.22 c-3.9-0.3-5.89-2.31-6.22-5.81c0.95-6.91,1.17-8.3,5.37-13.84c1.49-1.97,3.34-3.42,5.38-4.56c6.27-3.5,22.78-4.6,29.16-9.47 c0.4-0.68,0.81-1.53,1.21-2.44c0.76-1.73,1.45-3.63,1.89-4.92c-1.85-2.18-3.43-4.63-4.95-7.05l-5.01-7.96 c-1.83-2.73-2.78-5.23-2.84-7.28c-0.03-0.96,0.14-1.84,0.49-2.61c0.37-0.81,0.95-1.48,1.72-2c0.36-0.24,0.77-0.45,1.21-0.62 c-0.32-4.32-0.45-9.76-0.24-14.32c0.11-1.08,0.31-2.16,0.62-3.24c7.84-28.02,45.46-18.06,47.12,5.08l-0.31,13v0 c1.39,0.42,2.28,1.3,2.64,2.73c0.4,1.58-0.04,3.81-1.37,6.84l0,0c-0.02,0.06-0.05,0.11-0.08,0.16l-5.71,9.4 c-2.1,3.45-4.23,6.92-7,9.65c0.25,0.36,0.5,0.72,0.75,1.09c0.93,1.36,1.87,2.73,2.99,4l0,0c5.88,5.29,23.28,6.35,29.75,9.96 c2.05,1.14,3.9,2.6,5.38,4.56c4.2,5.54,4.42,6.94,5.37,13.84c-0.33,3.5-2.31,5.51-6.22,5.81H84.96c1.08-1.88,1.7-4.06,1.7-6.38 c0-7.08-5.74-12.82-12.82-12.82c-2.84,0-5.47,0.93-7.59,2.49c-0.67-2.4-2.05-4.61-4.05-6.28C66.34,78.89,70.03,75.97,72.15,71.35 L72.15,71.35z M50.49,107.12l-9.31-5.37l-4.88,8.46c-0.71,1.23-0.9,2.7-0.53,4.08c0.36,1.33,1.22,2.53,2.5,3.27 c1.23,0.71,2.7,0.9,4.08,0.53c1.33-0.36,2.53-1.22,3.27-2.5L50.49,107.12L50.49,107.12L50.49,107.12z M55.53,7.17h2.5 c0.47,0,0.85,0.38,0.85,0.85v3.73h3.73c0.47,0,0.85,0.38,0.85,0.85v2.5c0,0.47-0.38,0.85-0.85,0.85h-3.73v3.73 c0,0.47-0.38,0.85-0.85,0.85h-2.5c-0.47,0-0.85-0.38-0.85-0.85v-3.73h-3.73c-0.47,0-0.85-0.38-0.85-0.85v-2.5 c0-0.47,0.38-0.85,0.85-0.85h3.73V8.02C54.68,7.55,55.06,7.17,55.53,7.17L55.53,7.17L55.53,7.17z M46.67,88.49 c1.96-3.4,6.35-4.57,9.75-2.61l0,0c3.4,1.96,4.57,6.35,2.61,9.75c-4.05,7.03-8.1,13.98-12.16,21.01c-0.94,1.63-2.49,2.81-4.31,3.3 c-1.52,0.41-3.16,0.32-4.67-0.34c-1.98-0.86-3.45-2.57-4.02-4.67c-0.47-1.76-0.27-3.7,0.7-5.39l0,0 C38.62,102.5,42.6,95.53,46.67,88.49L46.67,88.49L46.67,88.49z M68.45,112.49c1.01,2.09,1,4.61-0.25,6.77 c-2,3.46-6.42,4.65-9.88,2.65c-1.02-0.59-1.84-1.39-2.44-2.31L68.45,112.49L68.45,112.49L68.45,112.49z M67.57,93.18 c2-3.46,6.42-4.65,9.88-2.65c0.94,0.54,1.71,1.27,2.3,2.1l-12.54,7.1C66.32,97.68,66.37,95.26,67.57,93.18L67.57,93.18L67.57,93.18 z M80.35,93.64c1.01,2.08,1,4.61-0.25,6.77c-2,3.46-6.42,4.65-9.88,2.65c-1.02-0.59-1.84-1.39-2.44-2.31L80.35,93.64L80.35,93.64 L80.35,93.64z M55.67,112.02c2-3.46,6.42-4.65,9.88-2.65c0.94,0.54,1.71,1.27,2.3,2.1l-12.53,7.09 C54.42,116.53,54.47,114.1,55.67,112.02L55.67,112.02L55.67,112.02z M51.23,56.01c-0.48-0.21-0.7-0.76-0.5-1.25 c0.21-0.48,0.76-0.7,1.25-0.5c1.62,0.7,3.23,1.03,4.82,1.02c1.59-0.01,3.19-0.36,4.79-1.03c0.48-0.2,1.04,0.03,1.24,0.51 c0.2,0.48-0.03,1.04-0.51,1.24c-1.82,0.76-3.65,1.16-5.5,1.17C54.95,57.19,53.09,56.81,51.23,56.01L51.23,56.01z M54.55,50.28 c-0.27-0.25-0.29-0.69-0.04-0.96c0.24-0.28,0.65-0.3,0.92-0.04c0.47,0.45,0.92,0.67,1.35,0.66c0.44-0.01,0.9-0.23,1.37-0.68 c0.27-0.24,0.69-0.22,0.92,0.07c0.23,0.29,0.21,0.72-0.07,0.96c-0.71,0.65-1.45,1-2.21,1.01C56.01,51.31,55.28,50.98,54.55,50.28 L54.55,50.28L54.55,50.28z M62.75,39.6c-0.41-0.28-0.52-0.84-0.25-1.25c0.28-0.41,0.84-0.52,1.25-0.25 c0.5,0.33,1.35,0.51,2.25,0.49c0.85-0.01,1.72-0.2,2.33-0.6c0.42-0.27,0.98-0.14,1.24,0.27c0.27,0.42,0.14,0.98-0.28,1.24 c-0.91,0.58-2.11,0.86-3.27,0.88C64.79,40.41,63.55,40.13,62.75,39.6L62.75,39.6L62.75,39.6z M76.14,34.36 c-0.03-0.98-0.38-1.92-1-2.81l-0.03-0.07L75.1,31.5c-5.96-8.42-35.59-12.22-36.87,5.35l0.05,0.12c-0.95-0.08-3.43,0.04-4.29,0.62 c-0.33,0.22-0.57,0.5-0.72,0.83c-0.17,0.37-0.25,0.82-0.24,1.34c0.04,1.52,0.84,3.52,2.39,5.81l0.02,0.03l5.01,7.97 C53.12,73.7,64.63,68.06,73.88,52.8l5.64-9.29c1.05-2.4,1.43-4.01,1.19-4.95c-0.14-0.56-0.76-0.84-1.82-0.89 c-0.22-0.01-0.45-0.01-0.69-0.01c-0.25,0.01-0.51,0.02-0.79,0.05c-0.03,0-0.06,0-0.09,0.01L76.14,34.36L76.14,34.36z M44.47,39.6 c-0.41-0.28-0.52-0.84-0.25-1.25c0.28-0.41,0.84-0.52,1.25-0.25c0.51,0.34,1.36,0.53,2.29,0.52c0.86,0,1.76-0.19,2.45-0.59 c0.43-0.25,0.98-0.1,1.23,0.33c0.25,0.43,0.1,0.98-0.33,1.23c-0.97,0.56-2.19,0.82-3.34,0.83C46.5,40.43,45.27,40.13,44.47,39.6 L44.47,39.6L44.47,39.6z M44.11,35.57c-0.41,0.29-0.97,0.19-1.26-0.21c-0.29-0.41-0.19-0.97,0.21-1.26 c1.34-0.95,2.72-1.44,4.13-1.45c1.41-0.01,2.81,0.47,4.22,1.44c0.41,0.28,0.51,0.85,0.23,1.26c-0.28,0.41-0.84,0.51-1.25,0.23 c-1.09-0.76-2.15-1.12-3.18-1.12C46.17,34.46,45.14,34.83,44.11,35.57L44.11,35.57L44.11,35.57z M63.62,35.57 c-0.41,0.29-0.97,0.19-1.26-0.21c-0.29-0.41-0.19-0.97,0.21-1.26c1.34-0.95,2.72-1.44,4.13-1.45c1.41-0.01,2.81,0.47,4.22,1.44 c0.41,0.28,0.51,0.85,0.23,1.26c-0.28,0.41-0.84,0.51-1.25,0.23c-1.09-0.76-2.16-1.12-3.18-1.12 C65.68,34.46,64.65,34.83,63.62,35.57L63.62,35.57L63.62,35.57z"/></g></svg>